<?xml version="1.0" standalone="no"?>
<!DOCTYPE svg PUBLIC "-//W3C//DTD SVG 20010904//EN"
 "http://www.w3.org/TR/2001/REC-SVG-20010904/DTD/svg10.dtd">
<svg version="1.0" xmlns="http://www.w3.org/2000/svg"
 width="700.000000pt" height="700.000000pt" viewBox="0 0 700.000000 700.000000"
 preserveAspectRatio="xMidYMid meet">
<metadata>
Created by potrace 1.14, written by Peter Selinger 2001-2017
</metadata>
<g transform="translate(0.000000,700.000000) scale(0.100000,-0.100000)"
fill="#000000" stroke="none">
<path d="M3778 6987 c-100 -38 -172 -104 -215 -197 -21 -46 -28 -73 -38 -145
-3 -23 -8 -52 -10 -65 -3 -14 -7 -43 -10 -65 -3 -22 -7 -47 -10 -55 -2 -8 -6
-37 -10 -65 -3 -27 -8 -57 -10 -65 -2 -8 -6 -31 -9 -50 -3 -19 -15 -93 -26
-165 -12 -71 -23 -141 -25 -155 -3 -25 -22 -141 -30 -190 -2 -14 -11 -70 -20
-125 -9 -55 -27 -167 -40 -250 -13 -82 -27 -168 -30 -190 -3 -22 -10 -62 -15
-90 -5 -27 -12 -68 -15 -90 -3 -22 -8 -51 -10 -65 -4 -23 -29 -180 -40 -255
-3 -16 -12 -70 -20 -120 -8 -49 -22 -135 -30 -190 -22 -138 -23 -146 -29 -180
-28 -169 -87 -539 -91 -570 -3 -22 -11 -67 -17 -100 -5 -33 -11 -69 -13 -80
-1 -11 -5 -36 -9 -55 -3 -19 -8 -51 -10 -70 -3 -19 -14 -91 -25 -160 -12 -69
-23 -143 -26 -165 -4 -22 -8 -47 -10 -55 -2 -8 -7 -33 -10 -55 -3 -23 -7 -52
-10 -65 -3 -13 -7 -42 -10 -65 -4 -22 -8 -53 -11 -70 -3 -16 -7 -43 -10 -60
-2 -16 -9 -55 -14 -85 -5 -30 -12 -73 -15 -95 -3 -22 -8 -56 -12 -75 -30 -171
-22 -252 35 -352 120 -209 408 -232 564 -45 63 76 71 105 133 505 7 46 12 74
30 187 9 55 18 111 20 125 2 14 6 39 9 55 3 17 12 75 21 130 20 126 18 113 55
340 17 105 33 206 36 225 3 19 7 46 9 60 5 27 8 46 25 155 6 39 13 81 15 95 2
14 13 79 24 145 17 105 42 265 57 360 3 17 9 55 14 85 5 30 12 73 15 95 4 22
8 51 10 65 2 14 11 70 20 125 9 55 18 111 20 125 2 14 7 42 10 64 4 21 8 47
10 56 2 10 7 40 11 67 3 26 8 57 10 68 2 10 6 37 9 60 10 67 15 98 25 150 5
28 11 66 14 85 3 19 12 80 21 135 9 55 18 114 21 130 2 17 6 41 9 55 2 14 7
41 9 60 3 19 17 103 30 185 14 83 27 168 31 190 3 23 7 52 10 65 3 13 7 42 11
65 3 22 14 94 25 159 33 197 24 274 -41 376 -64 100 -153 150 -275 156 -52 3
-93 0 -117 -9z"/>
<path d="M2040 6256 c-52 -11 -110 -42 -156 -82 -20 -18 -215 -198 -238 -219
-6 -6 -74 -69 -151 -140 -77 -71 -162 -150 -190 -176 -27 -26 -63 -60 -80 -75
-16 -15 -78 -72 -137 -126 -59 -55 -117 -109 -130 -120 -13 -11 -45 -41 -73
-67 -27 -25 -84 -78 -125 -116 -237 -220 -318 -295 -345 -319 -16 -15 -53 -48
-80 -74 -83 -78 -275 -255 -306 -283 l-29 -26 63 -59 c66 -61 262 -243 308
-285 15 -13 77 -71 139 -129 62 -58 121 -112 131 -121 17 -14 208 -192 269
-249 15 -14 76 -70 135 -125 60 -55 139 -129 177 -163 37 -35 77 -73 90 -83
12 -11 74 -68 137 -127 64 -59 143 -132 176 -162 33 -31 85 -79 115 -107 84
-78 101 -90 168 -112 316 -107 587 261 403 548 -17 26 -53 68 -80 92 -50 45
-237 218 -300 278 -20 18 -76 70 -125 115 -49 44 -97 88 -105 97 -9 8 -50 46
-91 85 -42 38 -125 115 -185 171 -61 55 -124 114 -142 130 -17 16 -72 67 -122
113 -50 46 -91 87 -91 91 0 9 3 12 125 124 53 50 112 104 130 120 17 17 74 69
126 117 52 47 115 106 140 130 26 23 88 81 139 128 51 47 109 101 130 120 42
39 113 105 280 259 236 217 260 243 293 311 29 59 32 73 31 160 0 81 -4 103
-26 150 -74 160 -230 240 -398 206z"/>
<path d="M4933 6152 c-156 -56 -244 -188 -240 -362 4 -135 37 -189 222 -360
39 -36 125 -116 192 -179 68 -62 133 -122 145 -133 13 -11 72 -65 132 -121 60
-56 139 -129 175 -162 36 -33 94 -87 130 -121 37 -33 98 -90 136 -126 39 -35
92 -85 119 -111 l50 -45 -31 -29 c-17 -15 -79 -73 -139 -128 -129 -119 -224
-208 -273 -254 -20 -18 -71 -65 -115 -105 -43 -39 -95 -87 -115 -106 -20 -19
-63 -60 -96 -90 -33 -30 -112 -103 -175 -161 -63 -59 -129 -120 -146 -135
-229 -212 -244 -227 -274 -288 -38 -76 -48 -133 -38 -213 15 -127 95 -239 207
-292 47 -22 69 -26 141 -26 125 1 179 30 336 180 24 23 67 64 96 90 29 26 103
94 163 151 61 56 124 115 140 129 17 15 57 53 90 84 51 47 114 105 305 281 15
14 76 70 135 125 59 55 120 111 135 125 47 43 251 233 309 287 31 28 70 63 86
79 17 15 83 76 148 137 l117 109 0 51 c0 42 -5 54 -28 76 -58 54 -289 268
-341 316 -30 28 -62 57 -71 65 -9 8 -69 64 -134 124 -64 60 -125 117 -135 125
-10 9 -74 68 -142 131 -68 63 -155 144 -194 180 -110 101 -167 154 -184 171
-9 8 -74 69 -146 134 -156 143 -208 192 -300 279 -130 123 -264 163 -392 118z"/>
</g>
</svg>
