<svg width="55" height="47" viewBox="0 0 65 57" fill="none" xmlns="http://www.w3.org/2000/svg">
<path d="M8.12499 30.875H10.8333V47.5C10.8333 50.1196 13.2627 52.25 16.25 52.25H48.75C51.7373 52.25 54.1667 50.1196 54.1667 47.5V30.875H56.875C57.4106 30.8749 57.9341 30.7355 58.3794 30.4746C58.8246 30.2136 59.1717 29.8427 59.3766 29.4088C59.5816 28.9749 59.6352 28.4974 59.5307 28.0368C59.4263 27.5762 59.1684 27.153 58.7898 26.8209L34.4148 5.44586C34.1635 5.22512 33.865 5.04999 33.5365 4.9305C33.2079 4.81101 32.8557 4.74951 32.5 4.74951C32.1443 4.74951 31.7921 4.81101 31.4635 4.9305C31.135 5.04999 30.8365 5.22512 30.5852 5.44586L6.2102 26.8209C5.83155 27.153 5.5737 27.5762 5.46925 28.0368C5.36479 28.4974 5.41843 28.9749 5.62336 29.4088C5.8283 29.8427 6.17535 30.2136 6.62063 30.4746C7.0659 30.7355 7.58942 30.8749 8.12499 30.875ZM32.5 10.4832L48.75 24.7332V35.625L48.7527 47.5H16.25V24.7332L32.5 10.4832Z" fill="white"/>
<path d="M32.5 42.75C42.529 42.75 45.7735 34.3449 45.9062 33.9886L40.7604 32.5138C40.7387 32.5684 38.6452 38 32.5 38C26.4387 38 24.3208 32.7251 24.2369 32.4995L19.0938 33.9886C19.2265 34.3449 22.471 42.75 32.5 42.75Z" fill="white"/>
</svg>
